#tb 0: 1/25
0,          0,          0,        1,  6220800, 0xca2a2a5e
0,          1,          1,        1,  6220800, 0x8009a65e
0,          2,          2,        1,  6220800, 0x63e72b3b
0,          3,          3,        1,  6220800, 0x7459a1cc
0,          4,          4,        1,  6220800, 0x02191aa9
0,          5,          5,        1,  6220800, 0x88dca590
0,          6,          6,        1,  6220800, 0x4484d484
0,          7,          7,        1,  6220800, 0x8afdb53f
0,          8,          8,        1,  6220800, 0xd3d6017a
0,          9,          9,        1,  6220800, 0xf5162af0
